<?xml version="1.0" encoding="UTF-8"?>
<svg id="Layer_2" data-name="Layer 2" xmlns="http://www.w3.org/2000/svg" viewBox="0 0 255.94 349">
  <defs>
    <style>
      .cls-1 {
        fill: #000;
      }

      .cls-1, .cls-2, .cls-3 {
        stroke-width: 0px;
      }

      .cls-2 {
        fill: #270000;
      }

      .cls-3 {
        fill: #970000;
      }
    </style>
  </defs>
  <g id="Layer_1-2" data-name="Layer 1">
    <g>
      <path class="cls-2" d="M98.95,349l-.14-.04c-.36-.1-.72-.23-1.07-.35-.71-.24-1.38-.47-2.03-.54-13.16-1.51-25.53-5.42-36.76-11.62-22.4-12.36-40.26-33.2-50.29-58.67-10.01-25.44-11.39-53.37-3.88-78.65,6.03-20.3,15.86-35.41,30.04-46.2,10.96-8.33,23.17-12.39,37.34-12.39,8.37,0,17.31,1.41,27.33,4.32,2,.58,3.68,2.48,4.92,4.08,2.51,3.22,4.93,6.57,7.28,9.81.75,1.04,1.5,2.08,2.26,3.12l.15-.09s-.23-1.18-.35-1.76c-.34-1.73-.69-3.51-1.12-5.24-7.82-31.86-6.61-63.14,3.59-92.98,7.02-20.53,16.08-33.79,29.37-43,2.34-1.62,4.09-4.73,5.49-7.55,3.02-6.07,6.62-9.53,11.68-11.2l.15-.05h5.4l.21.11c8.22,4.21,11.03,9.06,9.1,15.72-2.06,7.12-8.44,12.09-15.51,12.09-.42,0-.84-.02-1.27-.05-.88-.07-1.77-.11-2.62-.11-7.18,0-13.18,2.55-17.82,7.58-4.9,5.32-10.4,11.56-13.5,18.45-11.06,24.54-15.22,47.87-12.71,71.33.58,5.4,1.71,10.86,2.81,16.14.44,2.1.89,4.27,1.3,6.42,2.33-.57,4.55-1.13,6.7-1.66,5.02-1.25,9.75-2.44,14.46-3.47,5.78-1.27,11.53-1.92,17.08-1.92,22.48,0,41.36,10.33,53.17,29.09,7.79,12.38,12.6,26.72,14.29,42.63,3.73,35.11-6.35,67.36-30.82,98.6-13.66,17.45-31.82,28.92-53.96,34.1-4.55,1.06-9.21,1.93-13.72,2.76-2.09.39-4.17.77-6.25,1.18l-.1.02h-20.24ZM78.26,149.15c-6.07,0-11.67,1.01-17.1,3.08-4.04,1.54-6.39,3.55-7.01,6-.61,2.43.5,5.3,3.3,8.53,6.71,7.73,15.72,12.59,28.36,15.29,15.11,3.22,30.51,6.35,45.4,9.38,5.89,1.2,11.77,2.39,17.66,3.6,2.45.5,4.91.99,7.36,1.48,4.49.89,9.14,1.82,13.69,2.81,14.62,3.2,24.52,10.66,30.22,22.79.2-.24.4-.46.59-.68.93-1.07,1.67-1.92,2.31-2.83,5.99-8.47,7.92-19.24,5.29-29.53-2.68-10.49-9.71-19.2-19.29-23.9-2.28-1.12-4.26-1.64-6.23-1.64-2.37,0-4.79.78-7.64,2.44-19.58,11.48-38.19,17.06-56.9,17.06-9.83,0-19.77-1.61-29.54-4.79l-.83-.27c-4.32-1.38-9.69-3.1-10.15-9.37-.52-7.01,4.94-10.04,9.75-12.7,1.66-.92,3.42-1.54,5.11-2.14.82-.29,1.64-.58,2.44-.9.7-.28,1.39-.57,2.23-.93-7.2-1.88-13.31-2.77-19.04-2.77ZM30.73,171.79c-5.29,1.24-10.44,7.37-13.6,16.29-4.85,13.69-2.9,25.05,1.15,30.55.47-.97.92-1.96,1.38-2.94,1.54-3.32,3.13-6.75,5.14-9.89,1.87-2.92,4.11-5.62,6.28-8.24,1.28-1.55,2.61-3.15,3.84-4.76.73-.96,1.21-2.18,1.07-2.71-1.27-4.86-2.73-9.74-4.13-14.46-.38-1.28-.76-2.56-1.14-3.83ZM144.52,152.22c7.14,0,10.08,2.75,14.62,10.92,3.32-2.72,5.1-5.27,4.14-8.93-1.05-3.99-4.6-4.84-8.47-5.42-.62-.09-1.23-.14-1.81-.14-.31,0-.61.01-.91.04-6.59.63-14.39,1.39-22.26,2.25-.6.06-1.22.26-1.92.49,1.66,1.38,2.53,1.78,4.39,1.78,1.24,0,2.9-.18,5.47-.49,2.94-.35,5.02-.5,6.74-.5Z"/>
      <path class="cls-3" d="M163.09,1h5c7.78,3.99,10.38,8.39,8.6,14.55-2,6.92-8.5,11.92-15.73,11.32-8.43-.7-15.76,1.83-21.26,7.79-5.22,5.66-10.56,11.8-13.68,18.72-10.26,22.76-15.48,46.72-12.79,71.85.85,7.94,2.84,15.76,4.31,23.67,8.28-2.02,15.19-3.85,22.17-5.38,28.97-6.37,54.58,3.53,69.19,26.73,8.12,12.91,12.54,27.17,14.14,42.2,3.93,36.98-8.16,69.21-30.61,97.87-13.66,17.45-31.72,28.67-53.4,33.74-6.59,1.54-13.29,2.64-19.94,3.94h-20c-1.09-.32-2.16-.79-3.27-.92-12.88-1.48-25.05-5.24-36.39-11.5C13.5,310.24-9.65,251.2,5.74,199.42c5.42-18.24,14.56-34.18,29.68-45.69,19.43-14.78,41.43-14.39,63.79-7.9,1.7.49,3.24,2.23,4.41,3.73,3.47,4.46,6.72,9.08,10.06,13.65.51-.31,1.03-.62,1.54-.93-.54-2.58-.99-5.18-1.62-7.73-7.65-31.15-6.86-61.93,3.57-92.42,5.78-16.89,13.84-31.99,29-42.51,2.56-1.77,4.37-5.01,5.82-7.93,2.47-4.98,5.68-8.9,11.1-10.69ZM100.33,151.71c-13.91-3.97-26.71-5.3-39.53-.42-8.75,3.33-10.2,9.1-4.1,16.12,7.66,8.83,17.82,13.24,28.91,15.61,20.99,4.48,42.04,8.67,63.07,12.98,7.01,1.44,14.05,2.76,21.04,4.29,13.52,2.96,24.21,9.79,30.17,23.66,1.71-2.04,2.95-3.34,3.98-4.78,13.06-18.47,6.07-44.88-14.37-54.9-5.25-2.57-9.47-2.29-14.81.84-26.77,15.69-55.12,22.1-85.62,12.18-4.55-1.48-9.85-2.8-10.3-8.76-.47-6.39,4.59-9.18,9.29-11.78,2.3-1.28,4.92-1.98,7.39-2.96,1.31-.52,2.61-1.1,4.89-2.07ZM18.51,220.46c2.33-4.7,4.3-9.69,7.14-14.12,2.94-4.58,6.77-8.58,10.08-12.94.74-.98,1.51-2.54,1.24-3.57-1.7-6.49-3.68-12.9-5.53-19.18-14.98,2.02-24.59,37.45-12.93,49.82ZM158.83,164.66c3.8-2.94,6.66-5.98,5.42-10.7-1.2-4.58-5.24-5.55-9.29-6.16-.97-.15-1.99-.2-2.96-.11-7.43.71-14.85,1.44-22.27,2.25-1.18.13-2.31.64-3.81,1.08,4.03,3.55,4.28,3.6,11.98,2.69,12.4-1.46,14.88-.2,20.94,10.95Z"/>
      <path class="cls-1" d="M255.94,61.46c-8.63,17.33-14.22,36.23-30.46,48.53-13.98,10.59-30.24,13.22-47.22,12.89-7.48-.15-14.96-.75-22.44-.88-3.27-.06-6.54.56-9.94.88-2.06-17.56.19-34.09,14.36-47.36,20.11-18.84,43.78-24.13,70.27-19.3,8.31,1.51,16.54,3.4,25.42,5.24Z"/>
    </g>
  </g>
</svg>