<?xml version="1.0" encoding="UTF-8"?>
<svg id="Layer_1" data-name="Layer 1" xmlns="http://www.w3.org/2000/svg" viewBox="0 0 144.72 144">
  <defs>
    <style>
      .cls-1 {
        fill: #fff;
        stroke: #ab2328;
        stroke-linejoin: round;
        stroke-width: 1.52px;
      }

      .cls-2 {
        fill: #ebd6ba;
      }

      .cls-2, .cls-3 {
        stroke-width: 0px;
      }

      .cls-3 {
        fill: #ab2328;
      }
    </style>
  </defs>
  <ellipse class="cls-2" cx="70.53" cy="65.04" rx="69.03" ry="57.17" transform="translate(-23.07 43.98) rotate(-30)"/>
  <ellipse class="cls-3" cx="70.74" cy="65.4" rx="65.02" ry="53.85" transform="translate(-23.22 44.13) rotate(-30)"/>
  <path class="cls-2" d="M126.99,29.9L11.13,96.68c-.27-.53-.55-1.09-.82-1.69-.27-.6-.5-1.18-.71-1.73,38.38-22.16,76.75-44.31,115.13-66.47.24.32.49.63.73.95.29.4.57.8.86,1.21.22.32.44.64.66.96Z"/>
  <path class="cls-1" d="M24.66,74.48l-.37,2.68c-.08.56-.41,1.05-.9,1.33l-4.82,2.78c-1.32.76-2.94-.34-2.72-1.85l7.71-52.55c.07-.47.32-.9.7-1.19l4.95-3.75c1.3-.99,3.15.1,2.91,1.72l-6.74,45.89c1.15.43,2.32.3,3.51-.38,2.34-1.35,4.4-4.35,6.19-8.99s3.17-10.04,4.16-16.19c.98-6.15,1.48-12.07,1.48-17.76,0-5.36-.79-8.83-2.37-10.41-1.58-1.58-3.79-1.55-6.62.09-3.08,1.78-5.84,4.18-8.28,7.2-2.44,3.02-4.36,6.44-5.76,10.26-1.4,3.82-2.09,7.75-2.09,11.8,0,2.02.14,3.35.43,3.98,0,0,0,.01,0,.02.28.61.02,1.33-.58,1.62-1.65.79-2.95.95-3.89.49-1.13-.55-1.69-2.17-1.69-4.85,0-3.72,1.05-7.85,3.14-12.4,2.09-4.54,4.89-8.84,8.4-12.89,3.51-4.05,7.29-7.25,11.36-9.59,5.62-3.25,9.77-3.42,12.43-.53,2.67,2.89,4,7.79,4,14.68,0,6.24-.79,12.84-2.37,19.79-1.58,6.96-3.68,13.11-6.31,18.46-2.63,5.35-5.42,8.87-8.37,10.58-2.46,1.42-4.97,1.42-7.51-.01Z"/>
  <path class="cls-1" d="M57.74,17.62l4.84-2.79c1.32-.76,2.94.33,2.72,1.84l-.26,1.82c1.39-2.45,2.66-4.43,3.79-5.96,1.13-1.53,2.35-2.67,3.66-3.43,1.31-.76,2.35-.75,3.11.01.76.77,1.14,2,1.14,3.69,0,1.59-.39,3.21-1.17,4.86-.78,1.65-1.87,2.88-3.26,3.69-.9.52-1.51.58-1.82.19-.31-.4-.54-1.09-.71-2.09-.12-.64-.25-1.09-.37-1.35-.12-.26-.35-.29-.68-.1-.86.5-1.59,1.15-2.19,1.96-.6.81-1.36,2.06-2.31,3.75l-4.8,33.15c-.08.55-.41,1.04-.89,1.32l-4.83,2.79c-1.32.76-2.94-.34-2.72-1.85l5.85-40.19c.08-.55.41-1.04.89-1.32Z"/>
  <path class="cls-1" d="M71.04,50.39c-.94-.71-1.42-1.97-1.42-3.78s.47-3.62,1.42-5.45c.94-1.83,2.09-3.14,3.45-3.92s2.51-.81,3.48-.08c.96.73,1.45,2,1.45,3.8s-.48,3.62-1.45,5.43c-.96,1.82-2.12,3.11-3.48,3.9s-2.5.82-3.45.1Z"/>
  <path class="cls-1" d="M62.56,80c-2.79,2.92-4.91,6.22-6.37,9.87-1.46,3.66-2.19,7.49-2.19,11.48,0,1.75.14,3.27.43,4.55.09.41.19.78.31,1.12.4,1.17-.23,2.43-1.39,2.85-1.49.54-2.65.57-3.5.07-1.25-.73-1.88-2.6-1.88-5.6,0-3.83.84-7.88,2.52-12.17,1.68-4.28,3.96-8.24,6.83-11.86,2.87-3.63,5.99-6.41,9.36-8.36.94-.54,1.76-.94,2.46-1.18l.34-.12c1.05-.36,2.18.3,2.39,1.4l7.06,37.88,6.77-47.66c.08-.56.41-1.04.9-1.33l1.92-1.11c1.33-.77,2.95.34,2.72,1.85l-9.34,62.56c-.08.55-.41,1.03-.89,1.31l-5.51,3.18c-1.09.63-2.47,0-2.71-1.23l-6.65-34.07-6.88,43.9c-.09.55-.41,1.02-.89,1.3l-1.8,1.04c-1.33.77-2.95-.34-2.72-1.86l8.73-57.83Z"/>
  <path class="cls-1" d="M138.19,50.45c.61-4.4,1.05-7.38,1.31-8.95,0-.01,0-.02,0-.04h0c.15-1.47-1.53-2.41-2.7-1.52l-5.2,3.94c-.38.29-.63.71-.7,1.19l-1.7,11.38c-.03.17-.13.32-.28.41l-1.52.88c-.17.1-.29.27-.31.46l-.29,2.1c-.06.47.44.81.85.57h0c.41-.24.92.11.85.58l-3.55,24.27c-.01.08-.04.16-.09.23-1.64,2.41-3.04,5.3-4.59,7.5-1.14,1.62-1.49,2.21-2.99,3.69-.74.74-1.55.66-1.94.42-.39-.24-.58-.91-.58-2,0-.93.08-1.85.25-2.77l4.24-29.16c.08-.53-.49-.91-.95-.64l-7.46,4.31c-.17.1-.28.27-.31.46l-4.14,28.46c-.49,2.53-1.15,4.67-1.97,6.43-.82,1.76-1.81,2.97-2.95,3.63-1.23.71-1.85-.05-1.85-2.3,0-.71.06-1.51.18-2.4l4.24-29.16c.08-.53-.49-.91-.95-.64l-7.27,4.2c-.29.17-.49.46-.54.79l-4.11,28.24c-.33,2.38-.49,4.25-.49,5.62,0,3.28.6,5.4,1.82,6.34,1.21.94,2.8.85,4.77-.29,1.6-.92,3.17-2.38,4.71-4.36,1.26-1.62,2.47-3.86,3.64-6.72.21-.51.95-.45,1.08.08.32,1.3.84,2.2,1.56,2.68,1.05.71,2.45.55,4.22-.47,2.26-1.3,4.04-4.01,6.74-7.05,2.74-3.08,3.97-5.74,5.18-7.78h0c.14,2.1.62,3.63,1.47,4.56,1.01,1.12,2.55,1.07,4.65-.14,1.31-.76,2.52-2,3.63-3.74.94-1.47,1.78-3.64,2.51-6.49.13-.5-.42-.9-.85-.63-.12.07-.24.14-.37.22-1.44.83-2.15.26-2.15-1.71,0-.71.1-1.73.31-3.05l3.9-26.62c.03-.17.13-.32.28-.41l3.21-1.85c.15-.09.26-.24.28-.42l.29-2.13c.06-.47-.44-.81-.85-.57l-1.67.97c-.41.24-.92-.1-.85-.57Z"/>
</svg>